<svg id="visual" viewBox="0 0 960 540" width="960" height="540" xmlns="http://www.w3.org/2000/svg" xmlns:xlink="http://www.w3.org/1999/xlink" version="1.1"><rect x="0" y="0" width="960" height="540" fill="#ffffff"></rect><path d="M485 540L491.3 525C497.7 510 510.3 480 502.2 450C494 420 465 390 462.8 360C460.7 330 485.3 300 492.2 270C499 240 488 210 490.3 180C492.7 150 508.3 120 509.3 90C510.3 60 496.7 30 489.8 15L483 0L960 0L960 15C960 30 960 60 960 90C960 120 960 150 960 180C960 210 960 240 960 270C960 300 960 330 960 360C960 390 960 420 960 450C960 480 960 510 960 525L960 540Z" fill="#349d63" stroke-linecap="round" stroke-linejoin="miter"></path></svg>